<?xml version="1.0" encoding="UTF-8" standalone="no"?>
<svg
   xmlns:dc="http://purl.org/dc/elements/1.1/"
   xmlns:cc="http://creativecommons.org/ns#"
   xmlns:rdf="http://www.w3.org/1999/02/22-rdf-syntax-ns#"
   xmlns:svg="http://www.w3.org/2000/svg"
   xmlns="http://www.w3.org/2000/svg"
   xmlns:sodipodi="http://sodipodi.sourceforge.net/DTD/sodipodi-0.dtd"
   xmlns:inkscape="http://www.inkscape.org/namespaces/inkscape"
   inkscape:export-ydpi="512"
   inkscape:export-xdpi="512"
   inkscape:export-filename="C:\Users\User\PycharmProjects\AccountingBot\resources\icons\checkbox\repeat_w.png"
   inkscape:version="1.0 (4035a4fb49, 2020-05-01)"
   sodipodi:docname="replay_letters.svg"
   id="svg855"
   version="1.1"
   width="24"
   viewBox="0 -960 960 960"
   height="24">
  <metadata
     id="metadata861">
    <rdf:RDF>
      <cc:Work
         rdf:about="">
        <dc:format>image/svg+xml</dc:format>
        <dc:type
           rdf:resource="http://purl.org/dc/dcmitype/StillImage" />
        <dc:title></dc:title>
      </cc:Work>
    </rdf:RDF>
  </metadata>
  <defs
     id="defs859">
    <marker
       inkscape:isstock="true"
       style="overflow:visible"
       id="marker1311"
       refX="0.0"
       refY="0.0"
       orient="auto"
       inkscape:stockid="Arrow1Lstart">
      <path
         transform="scale(0.8) translate(12.5,0)"
         style="fill-rule:evenodd;stroke:#303030;stroke-width:1pt;stroke-opacity:1;fill:#303030;fill-opacity:1"
         d="M 0.0,0.0 L 5.0,-5.0 L -12.5,0.0 L 5.0,5.0 L 0.0,0.0 z "
         id="path1309" />
    </marker>
    <marker
       inkscape:isstock="true"
       style="overflow:visible"
       id="marker1283"
       refX="0.0"
       refY="0.0"
       orient="auto"
       inkscape:stockid="Arrow1Lstart">
      <path
         transform="scale(0.8) translate(12.5,0)"
         style="fill-rule:evenodd;stroke:#000000;stroke-width:1.0pt"
         d="M 0.0,0.0 L 5.0,-5.0 L -12.5,0.0 L 5.0,5.0 L 0.0,0.0 z "
         id="path1281" />
    </marker>
    <marker
       inkscape:isstock="true"
       style="overflow:visible"
       id="marker1261"
       refX="0.0"
       refY="0.0"
       orient="auto"
       inkscape:stockid="Arrow1Lstart">
      <path
         transform="scale(0.8) translate(12.5,0)"
         style="fill-rule:evenodd;stroke:#000000;stroke-width:1.0pt"
         d="M 0.0,0.0 L 5.0,-5.0 L -12.5,0.0 L 5.0,5.0 L 0.0,0.0 z "
         id="path1259" />
    </marker>
    <marker
       inkscape:isstock="true"
       style="overflow:visible"
       id="marker1245"
       refX="0.0"
       refY="0.0"
       orient="auto"
       inkscape:stockid="Arrow1Lstart">
      <path
         transform="scale(0.8) translate(12.5,0)"
         style="fill-rule:evenodd;stroke:#000000;stroke-width:1.0pt"
         d="M 0.0,0.0 L 5.0,-5.0 L -12.5,0.0 L 5.0,5.0 L 0.0,0.0 z "
         id="path1243" />
    </marker>
    <marker
       inkscape:isstock="true"
       style="overflow:visible"
       id="Arrow1Lstart"
       refX="0.0"
       refY="0.0"
       orient="auto"
       inkscape:stockid="Arrow1Lstart">
      <path
         transform="scale(0.8) translate(12.5,0)"
         style="fill-rule:evenodd;stroke:#303030;stroke-width:1pt;stroke-opacity:1;fill:#303030;fill-opacity:1"
         d="M 0.0,0.0 L 5.0,-5.0 L -12.5,0.0 L 5.0,5.0 L 0.0,0.0 z "
         id="path967" />
    </marker>
    <filter
       height="1.0000074"
       y="-3.678615e-06"
       width="1.0000138"
       x="-6.9048744e-06"
       id="filter923"
       style="color-interpolation-filters:sRGB"
       inkscape:collect="always">
      <feGaussianBlur
         id="feGaussianBlur925"
         stdDeviation="0.00041924686"
         inkscape:collect="always" />
    </filter>
  </defs>
  <sodipodi:namedview
     inkscape:current-layer="layer3"
     inkscape:window-maximized="1"
     inkscape:window-y="-8"
     inkscape:window-x="1912"
     inkscape:cy="14.039604"
     inkscape:cx="11.904851"
     inkscape:zoom="36.125"
     inkscape:snap-bbox-midpoints="true"
     inkscape:snap-bbox="true"
     showgrid="false"
     id="namedview857"
     inkscape:window-height="1057"
     inkscape:window-width="1920"
     inkscape:pageshadow="2"
     inkscape:pageopacity="0"
     guidetolerance="10"
     gridtolerance="10"
     objecttolerance="10"
     borderopacity="1"
     bordercolor="#666666"
     pagecolor="#ffffff" />
  <g
     inkscape:label="Replay"
     id="layer1"
     inkscape:groupmode="layer">
    <path
       style="fill:#8b8b8b;fill-opacity:1"
       id="path853"
       d="M480-80q-75 0-140.5-28.5t-114-77q-48.5-48.5-77-114T120-440h80q0 117 81.5 198.5T480-160q117 0 198.5-81.5T760-440q0-117-81.5-198.5T480-720h-6l62 62-56 58-160-160 160-160 56 58-62 62h6q75 0 140.5 28.5t114 77q48.5 48.5 77 114T840-440q0 75-28.5 140.5t-77 114q-48.5 48.5-114 77T480-80Z" />
  </g>
  <g
     style="display:inline"
     inkscape:label="w"
     id="layer3"
     inkscape:groupmode="layer">
    <path
       style="font-size:12px;fill:#8b8b8b;fill-opacity:1;fill-rule:evenodd;stroke:#8b8b8b;stroke-width:7.55906;stroke-linecap:square;stroke-linejoin:round;stroke-miterlimit:4;stroke-dasharray:none;stroke-opacity:1"
       id="path890"
       vector-effect="non-scaling-stroke"
       d="m 370.1873,-523.25706 38.88,135.16 10.36,40.96 55.72,-176.12 h 9.68 l 55.36,176.12 10.72,-40.96 38.68,-135.16 h 11.08 l -55.4,190.2 h -9.48 l -46.92,-142.92 -8.96,-34.08 -9.68,34.08 -46.24,142.92 h -9.48 l -55.2,-190.2 z" />
  </g>
  <g
     style="display:none"
     inkscape:label="m"
     id="layer4"
     inkscape:groupmode="layer">
    <path
       style="font-size:12px;fill:#8b8b8b;fill-opacity:1;fill-rule:evenodd;stroke:#8b8b8b;stroke-width:7.55906;stroke-linecap:round;stroke-linejoin:round;stroke-miterlimit:4;stroke-dasharray:none;stroke-opacity:1"
       id="path905"
       vector-effect="non-scaling-stroke"
       d="m 487.6273,-459.61706 v 126.56 h -9.52 v -127.8 q -0.08,-17.96 -5,-30.12 a 42.56,42.56 0 0 0 -7.56,-12.52 37.84,37.84 0 0 0 -15.96,-10.44 q -6.2,-2.2 -13.84,-3.04 a 90,90 0 0 0 -9.64,-0.48 58.8,58.8 0 0 0 -45.36,20.4 82.88,82.88 0 0 0 -5.8,7.2 92.44,92.44 0 0 0 -15.64,36.56 v 120.24 h -9.68 v -190.2 h 9.68 v 45 q 9.64,-23.2 27.6,-35.84 a 67.32,67.32 0 0 1 39.72,-12.68 88.8,88.8 0 0 1 16.68,1.48 q 12.92,2.48 22.44,9.08 13.84,9.6 19,30.32 a 87,87 0 0 1 0.92,4.12 q 8.44,-20.56 27.44,-32.76 a 76.92,76.92 0 0 1 42.52,-12.24 86.24,86.24 0 0 1 17.52,1.68 q 17.88,3.68 28.28,15.72 a 55.12,55.12 0 0 1 10.2,18.16 q 4.92,14.2 5,34.04 v 124.12 h -9.48 v -123.4 q 0,-30.88 -12.24,-45.92 a 38.48,38.48 0 0 0 -0.32,-0.4 38.44,38.44 0 0 0 -18.48,-11.96 q -8.6,-2.72 -19.76,-2.72 a 93.52,93.52 0 0 0 -1.24,0 72.08,72.08 0 0 0 -27.52,5.52 q -15.8,6.8 -27.12,21.84 a 84.04,84.04 0 0 0 -0.2,0.24 79.32,79.32 0 0 0 -7.08,11.36 q -3.36,6.64 -4.76,13.08 a 42.88,42.88 0 0 0 -0.8,5.8 z" />
  </g>
  <g
     style="display:none;filter:url(#filter923)"
     inkscape:label="d"
     id="layer2"
     inkscape:groupmode="layer">
    <g
       style="fill:#8b8b8b;fill-opacity:1;stroke:#8b8b8b;stroke-width:7.55906;stroke-miterlimit:4;stroke-dasharray:none;stroke-opacity:1"
       id="g1410">
      <path
         d="m 407.14103,-391.21324 v -2.48 a 174.48,174.48 0 0 1 2.08,-27.72 q 2.36,-14.72 7.44,-26.56 a 81.64,81.64 0 0 1 9.64,-16.8 61,61 0 0 1 44.4,-25.2 80.76,80.76 0 0 1 8.16,-0.4 80.76,80.76 0 0 1 21.32,2.72 67.52,67.52 0 0 1 16.56,6.96 67.44,67.44 0 0 1 20.96,19.56 86.16,86.16 0 0 1 5.68,9.28 v -114.8 h 9.48 v 270 h -9.48 v -30.4 a 66.24,66.24 0 0 1 -26.56,25.04 q -16.88,8.88 -38.32,8.88 a 66.92,66.92 0 0 1 -25.4,-4.68 q -15.72,-6.36 -26.8,-21.52 -15.64,-21.36 -18.52,-55.72 a 193.84,193.84 0 0 1 -0.64,-16.16 z m 136.24,47.44 v -89.12 q -15.08,-44.24 -57.32,-47.68 a 90.24,90.24 0 0 0 -7.36,-0.28 59,59 0 0 0 -21.2,3.64 q -14.04,5.36 -23.64,18.52 a 65.92,65.92 0 0 0 -0.6,0.84 q -16.28,23.04 -16.28,67.88 0,28.68 8.04,48.8 a 78.12,78.12 0 0 0 7.96,15.08 53.04,53.04 0 0 0 18.28,17.04 q 10.24,5.6 23.28,6.32 a 70.28,70.28 0 0 0 3.8,0.12 88.68,88.68 0 0 0 19.28,-2 66.28,66.28 0 0 0 20.96,-8.48 60.4,60.4 0 0 0 22,-24.52 76.72,76.72 0 0 0 2.8,-6.16 z"
         vector-effect="non-scaling-stroke"
         id="path863"
         style="font-size:12px;opacity:0.998;fill:#8b8b8b;fill-opacity:1;fill-rule:evenodd;stroke:#8b8b8b;stroke-width:7.55906;stroke-linecap:round;stroke-linejoin:round;stroke-miterlimit:4;stroke-dasharray:none;stroke-dashoffset:0;stroke-opacity:1" />
    </g>
    <rect
       y="-606.10406"
       x="350.76413"
       height="369.55505"
       width="266.98785"
       id="rect1412"
       style="opacity:0.998;fill:none;fill-opacity:0;stroke:none;stroke-width:7.55904;stroke-linecap:round;stroke-linejoin:round;stroke-miterlimit:4;stroke-dasharray:none;stroke-dashoffset:0;stroke-opacity:1" />
  </g>
</svg>
